HIERARCHY
ROOT Hips
{
 OFFSET 0.000000 0.000000 0.000000
 CHANNELS 6 Xposition Yposition Zposition Yrotation Xrotation Zrotation
 JOINT Chest
 {
  OFFSET 0.000000 9.585900 0.002600
  CHANNELS 3 Yrotation Xrotation Zrotation
  JOINT Chest2
  {
   OFFSET 0.000000 9.601200 -0.005300
   CHANNELS 3 Yrotation Xrotation Zrotation
   JOINT Chest3
   {
    OFFSET 0.000000 9.561800 0.000000
    CHANNELS 3 Yrotation Xrotation Zrotation
    JOINT Chest4
    {
     OFFSET 0.000000 9.552100 0.000000
     CHANNELS 3 Yrotation Xrotation Zrotation
     JOINT Neck
     {
      OFFSET 0.000000 14.453000 0.000000
      CHANNELS 3 Yrotation Xrotation Zrotation
      JOINT Head
      {
       OFFSET 0.000000 8.936500 -0.011300
       CHANNELS 3 Yrotation Xrotation Zrotation
       End Site
       {
        OFFSET 0.000000 17.073600 -0.006000
       }
      }
     }
     JOINT RightCollar
     {
      OFFSET -2.921100 9.558500 0.000000
      CHANNELS 3 Yrotation Xrotation Zrotation
      JOINT RightShoulder
      {
       OFFSET -13.519700 0.000000 0.000000
       CHANNELS 3 Yrotation Xrotation Zrotation
       JOINT RightElbow
       {
        OFFSET 0.000000 -29.696600 0.000000
        CHANNELS 3 Yrotation Xrotation Zrotation
        JOINT RightWrist
        {
         OFFSET 0.000000 -24.004700 0.000000
         CHANNELS 3 Yrotation Xrotation Zrotation
         End Site
         {
          OFFSET 0.000000 -17.728500 0.000000
         }
        }
       }
      }
     }
     JOINT LeftCollar
     {
      OFFSET 2.921100 9.558500 0.000000
      CHANNELS 3 Yrotation Xrotation Zrotation
      JOINT LeftShoulder
      {
       OFFSET 13.519700 0.000000 0.000000
       CHANNELS 3 Yrotation Xrotation Zrotation
       JOINT LeftElbow
       {
        OFFSET 0.000000 -29.696600 0.000000
        CHANNELS 3 Yrotation Xrotation Zrotation
        JOINT LeftWrist
        {
         OFFSET 0.000000 -24.004700 0.000000
         CHANNELS 3 Yrotation Xrotation Zrotation
         End Site
         {
          OFFSET 0.000000 -17.728500 0.000000
         }
        }
       }
      }
     }
    }
   }
  }
 }
 JOINT RightHip
 {
  OFFSET -7.771700 -0.012900 -0.001300
  CHANNELS 3 Yrotation Xrotation Zrotation
  JOINT RightKnee
  {
   OFFSET 0.000000 -40.869800 0.001200
   CHANNELS 3 Yrotation Xrotation Zrotation
   JOINT RightAnkle
   {
    OFFSET 0.000000 -39.717900 0.002100
    CHANNELS 3 Yrotation Xrotation Zrotation
    JOINT RightToe
    {
     OFFSET 0.000000 -4.965400 11.033500
     CHANNELS 3 Yrotation Xrotation Zrotation
     End Site
     {
      OFFSET 0.000000 -1.423100 5.872300
     }
    }
   }
  }
 }
 JOINT LeftHip
 {
  OFFSET 7.771700 -0.012900 -0.001300
  CHANNELS 3 Yrotation Xrotation Zrotation
  JOINT LeftKnee
  {
   OFFSET 0.000000 -40.869800 0.001200
   CHANNELS 3 Yrotation Xrotation Zrotation
   JOINT LeftAnkle
   {
    OFFSET 0.000000 -39.717900 0.002100
    CHANNELS 3 Yrotation Xrotation Zrotation
    JOINT LeftToe
    {
     OFFSET 0.000000 -4.965400 11.033500
     CHANNELS 3 Yrotation Xrotation Zrotation
     End Site
     {
      OFFSET 0.000000 -1.423100 5.872300
     }
    }
   }
  }
 }
}
MOTION
Frames: 13
Frame Time: 0.008333
-161.254558 51.237016 106.962824 -172.953912 -31.418540 -7.925907 -0.855520 13.149305 3.321948 -0.606140 7.539206 1.945871 -0.708043 9.412957 2.424588 -0.597416 7.528140 1.945395 2.254248 20.601092 -1.540616 2.741068 -3.802084 -2.149819 1.104821 4.081071 -2.778956 -20.993286 -2.162299 5.454924 117.602099 -86.848766 -98.067880 12.029569 -4.395304 -20.008139 -8.294368 1.854136 -3.337247 4.093730 -0.605171 -0.742048 -118.036135 -73.467573 120.331900 11.770357 -12.438492 -0.392860 -15.957980 -34.204498 5.113476 36.242482 82.854776 31.579800 -3.093834 -11.783504 -0.755867 -0.028728 -0.913516 -0.409879 -12.564193 -48.541671 5.343228 174.128649 78.587719 169.426763 -2.010905 -17.854000 2.106431 0.013211 0.014849 -0.006422
-161.244833 51.227383 106.964409 -172.968857 -31.401283 -7.930953 -0.863956 13.158659 3.331183 -0.601743 7.528298 1.945299 -0.707795 9.406170 2.424190 -0.597238 7.522650 1.945104 2.259978 20.608472 -1.543066 2.757755 -3.768352 -2.150269 1.109500 4.076629 -2.775587 -20.983385 -2.156589 5.458286 117.484140 -86.838774 -97.951267 12.023555 -4.397980 -20.006492 -8.287910 1.846377 -3.342693 4.097033 -0.601429 -0.729733 -118.034555 -73.454451 120.327127 11.768434 -12.459365 -0.374047 -16.008898 -34.073211 5.106096 35.846616 82.762956 31.147271 -3.067410 -11.645847 -0.570751 -0.042245 -0.883725 -0.485605 -12.604040 -48.562977 5.399738 174.171639 78.578638 169.457708 -2.007463 -17.856038 2.095567 0.008435 0.015530 -0.002404
-161.234656 51.218151 106.965176 -172.986903 -31.383639 -7.938479 -0.870124 13.164741 3.343157 -0.591608 7.515520 1.945235 -0.706243 9.401748 2.424326 -0.595996 7.519133 1.945148 2.262037 20.624109 -1.538821 2.769453 -3.759876 -2.156930 1.098683 4.072104 -2.771978 -20.967269 -2.160490 5.457872 117.312625 -86.837424 -97.782070 12.025529 -4.388315 -19.999382 -8.281010 1.840545 -3.342360 4.075769 -0.612005 -0.713520 -117.968749 -73.447085 120.280929 11.774255 -12.469288 -0.365760 -16.044901 -33.948702 5.103076 35.437120 82.681253 30.711638 -3.023762 -11.531551 -0.381224 -0.047463 -0.839919 -0.552203 -12.630142 -48.584488 5.449482 174.164098 78.567034 169.450723 -2.015720 -17.857795 2.088251 0.009097 0.014828 -0.002242
-161.222277 51.207653 106.967748 -173.031717 -31.349521 -7.945288 -0.848187 13.142511 3.368816 -0.588852 7.510804 1.946312 -0.693846 9.393792 2.423334 -0.595371 7.518098 1.945222 2.263028 20.630372 -1.537411 2.773437 -3.752960 -2.157707 1.080982 4.071430 -2.763584 -20.958077 -2.169411 5.459372 116.683030 -86.845738 -97.147106 12.037180 -4.388711 -19.998130 -8.277963 1.837897 -3.338426 4.063633 -0.618485 -0.709276 -117.925405 -73.442527 120.248037 11.750776 -12.469589 -0.374003 -16.049323 -33.850727 5.116976 35.025628 82.625482 30.300380 -2.954507 -11.471786 -0.210424 -0.037406 -0.768470 -0.598658 -12.629772 -48.625225 5.506073 174.111160 78.550337 169.417278 -2.026247 -17.864042 2.078325 0.009158 0.016146 -0.001977
-161.210815 51.199371 106.965586 -173.045490 -31.339324 -7.968173 -0.848394 13.145728 3.393846 -0.590190 7.508161 1.947662 -0.685465 9.386932 2.426126 -0.592603 7.513289 1.946511 2.267081 20.644918 -1.538292 2.775919 -3.750387 -2.163061 1.050065 4.073823 -2.754065 -20.931862 -2.181013 5.451385 116.397381 -86.844405 -96.851641 12.037656 -4.363993 -19.996365 -8.270765 1.838296 -3.345062 4.055509 -0.623571 -0.705045 -117.885832 -73.434115 120.217529 11.721568 -12.457549 -0.394799 -16.042496 -33.728325 5.111504 34.827983 82.567287 30.115967 -2.894141 -11.485885 -0.014958 -0.014835 -0.661017 -0.651597 -12.653646 -48.635609 5.557268 174.042903 78.533687 169.362754 -2.036185 -17.874487 2.067865 0.006742 0.019210 -0.002001
-161.200082 51.189309 106.964622 -173.074646 -31.316212 -7.980373 -0.828878 13.126645 3.419554 -0.589266 7.505571 1.948115 -0.704608 9.383960 2.429971 -0.577210 7.509704 1.942132 2.274751 20.661364 -1.539420 2.784638 -3.730995 -2.166225 1.046240 4.076836 -2.754124 -20.922773 -2.183014 5.448809 116.181462 -86.848362 -96.634395 12.030586 -4.343280 -19.994098 -8.267515 1.842862 -3.336575 4.059608 -0.625677 -0.718095 -117.834382 -73.413342 120.161671 11.720539 -12.435007 -0.409931 -15.993281 -33.618206 5.086896 34.983153 82.510731 30.306509 -2.869476 -11.674156 0.239325 0.014858 -0.460559 -0.736895 -12.651488 -48.665031 5.598361 174.019455 78.517258 169.360702 -2.037464 -17.881763 2.062873 0.004421 0.019381 -0.005598
-161.195006 51.177821 106.963414 -173.096383 -31.289131 -7.965681 -0.822127 13.103462 3.415177 -0.588932 7.502960 1.948412 -0.711504 9.378906 2.432895 -0.588591 7.496014 1.949833 2.289793 20.688413 -1.553989 2.792690 -3.712234 -2.172767 1.063694 4.093294 -2.769452 -20.935089 -2.178336 5.464587 115.742915 -86.849117 -96.188448 12.023515 -4.341612 -19.991284 -8.262815 1.863892 -3.333170 4.069318 -0.636775 -0.731258 -117.785337 -73.416094 120.119411 11.721196 -12.407246 -0.435148 -15.895302 -33.513816 5.005853 34.866167 82.488659 30.228501 -2.814342 -12.027392 0.550256 0.015095 -0.187585 -0.823149 -12.594545 -48.710000 5.567889 173.959129 78.499431 169.339018 -2.034021 -17.878828 2.053700 -0.002123 0.012461 -0.005267
-161.194069 51.166501 106.959726 -173.112790 -31.274002 -7.933356 -0.840320 13.112156 3.384704 -0.590064 7.492740 1.951836 -0.695503 9.363551 2.431601 -0.588637 7.490460 1.951259 2.291967 20.704339 -1.560237 2.801057 -3.690780 -2.180761 1.058274 4.099104 -2.771273 -20.942141 -2.168783 5.474996 115.528898 -86.848809 -95.966543 12.017912 -4.343867 -19.988725 -8.264347 1.872929 -3.335399 4.067736 -0.645199 -0.726504 -117.748401 -73.431683 120.082643 11.721597 -12.382618 -0.449740 -15.762224 -33.411472 4.864069 34.509626 82.513870 29.939317 -2.712763 -12.461613 0.832190 -0.012898 0.075964 -0.867770 -12.548312 -48.738934 5.535820 173.906655 78.480937 169.293654 -2.054230 -17.883411 2.058907 -0.002154 0.009004 -0.005053
-161.194369 51.155233 106.955080 -173.112742 -31.259125 -7.904519 -0.852084 13.101090 3.354742 -0.594517 7.497771 1.953455 -0.691228 9.354247 2.430815 -0.588734 7.488528 1.951828 2.291977 20.712971 -1.557754 2.813235 -3.649193 -2.195100 1.035732 4.092958 -2.761388 -20.951427 -2.143769 5.490457 115.455602 -86.859079 -95.865962 12.038686 -4.357590 -19.993391 -8.311712 1.875466 -3.300861 4.112819 -0.646058 -0.762374 -117.754110 -73.458390 120.062533 11.709496 -12.372283 -0.440210 -15.653799 -33.319912 4.692677 34.441982 82.541608 29.961852 -2.617522 -12.919618 1.038846 -0.045349 0.296505 -0.868623 -12.519399 -48.766575 5.503676 173.891321 78.466628 169.277249 -2.070195 -17.885819 2.067091 -0.000261 0.006938 -0.005989
-161.192772 51.145097 106.949969 -173.102548 -31.243211 -7.892663 -0.871241 13.103696 3.335575 -0.593789 7.489947 1.955474 -0.692671 9.344706 2.435363 -0.588989 7.480753 1.954744 2.293996 20.727638 -1.564948 2.819016 -3.636923 -2.206196 1.036831 4.100491 -2.770032 -20.958508 -2.136282 5.499490 115.479695 -86.853078 -95.879647 12.017181 -4.365705 -20.005527 -8.334087 1.880219 -3.296048 4.114998 -0.642312 -0.769811 -117.768011 -73.476292 120.080790 11.716349 -12.366321 -0.427311 -15.609932 -33.229733 4.541129 34.947633 82.533687 30.551906 -2.572047 -13.390917 1.152624 -0.062191 0.485842 -0.826559 -12.515600 -48.790341 5.488038 173.897296 78.454965 169.283385 -2.075100 -17.891531 2.072076 -0.000929 0.010680 -0.007174
-161.186141 51.137497 106.946068 -173.081041 -31.216547 -7.914256 -0.890473 13.099014 3.344015 -0.594196 7.475594 1.958910 -0.713132 9.334027 2.446275 -0.584238 7.473693 1.949517 2.300854 20.742169 -1.573709 2.830080 -3.621990 -2.220838 1.041727 4.109017 -2.766739 -20.971679 -2.125136 5.502007 115.577973 -86.857454 -95.954805 12.010915 -4.377954 -20.017326 -8.333474 1.891243 -3.303080 4.108010 -0.640924 -0.764456 -117.787107 -73.493627 120.104166 11.722268 -12.374128 -0.407485 -15.658168 -33.145692 4.456414 35.791900 82.495484 31.454866 -2.563185 -13.849843 1.175948 -0.059179 0.640484 -0.744501 -12.569901 -48.821540 5.541739 173.944900 78.437898 169.318480 -2.092513 -17.895069 2.082412 0.001851 0.009171 -0.007196
-161.173633 51.135569 106.944787 -173.059827 -31.173995 -7.966117 -0.897682 13.079327 3.386826 -0.600250 7.460789 1.961391 -0.726407 9.328138 2.452968 -0.586888 7.462257 1.950662 2.301742 20.753505 -1.579987 2.845987 -3.607399 -2.241527 1.023633 4.106673 -2.745460 -20.951585 -2.119880 5.481303 115.674216 -86.865898 -96.033503 12.011043 -4.386611 -20.031445 -8.333249 1.901544 -3.312803 4.086023 -0.653965 -0.738193 -117.768381 -73.529212 120.115727 11.725987 -12.386827 -0.396319 -15.783748 -33.081359 4.455006 36.633763 82.455841 32.322638 -2.570965 -14.270742 1.130156 -0.040732 0.753319 -0.629943 -12.669405 -48.857597 5.657870 174.031895 78.426564 169.386008 -2.106986 -17.890929 2.095174 0.000529 0.002164 -0.007714
-161.159325 51.144205 106.948004 -173.004339 -31.102922 -8.040022 -0.924777 13.056070 3.430707 -0.620623 7.442368 1.972129 -0.736955 9.305896 2.457529 -0.594708 7.450681 1.956125 2.312814 20.766473 -1.596508 2.852757 -3.601569 -2.250533 1.029340 4.112166 -2.749251 -20.952862 -2.117545 5.479117 115.967202 -86.887643 -96.316978 12.035015 -4.379066 -20.025705 -8.360476 1.895016 -3.313429 4.130209 -0.641620 -0.752986 -117.785186 -73.529672 120.119152 11.724960 -12.387743 -0.375227 -15.977988 -33.055163 4.508636 37.153993 82.426417 32.848434 -2.567267 -14.607594 1.050096 -0.026798 0.806929 -0.510208 -12.826423 -48.923312 5.820473 174.240480 78.418261 169.557454 -2.124861 -17.877053 2.123709 0.001655 -0.006159 -0.011064
